<?xml version="1.0" encoding="UTF-8"?>
<!DOCTYPE svg PUBLIC "-//W3C//DTD SVG 1.1//EN" "http://www.w3.org/Graphics/SVG/1.1/DTD/svg11.dtd">
<svg xmlns="http://www.w3.org/2000/svg" version="1.1" width="241px" height="217px" style="shape-rendering:geometricPrecision; text-rendering:geometricPrecision; image-rendering:optimizeQuality; fill-rule:evenodd; clip-rule:evenodd" xmlns:xlink="http://www.w3.org/1999/xlink">
<g><path style="opacity:1" fill="#404e54" d="M 166.5,6.5 C 172.011,7.84793 175.844,11.1813 178,16.5C 179.061,38.2193 179.561,59.8859 179.5,81.5C 178.167,84.5 178.167,87.5 179.5,90.5C 180.167,91.5 180.833,92.5 181.5,93.5C 180.761,93.369 180.094,93.5357 179.5,94C 180.662,126.095 180.829,158.262 180,190.5C 179.574,194.99 177.741,198.656 174.5,201.5C 174.284,199.319 175.117,197.653 177,196.5C 177.833,160.829 177.667,125.162 176.5,89.5C 175.898,84.7639 174.564,80.4306 172.5,76.5C 174.167,76.5 175.833,76.5 177.5,76.5C 177.667,65.1618 177.5,53.8284 177,42.5C 173.941,38.373 171.941,33.7064 171,28.5C 170.995,33.8444 170.162,39.1777 168.5,44.5C 167.5,44.5 166.5,44.5 165.5,44.5C 165.199,55.7055 165.532,66.8722 166.5,78C 166.192,79.4595 165.525,80.6261 164.5,81.5C 164.5,61.1667 164.5,40.8333 164.5,20.5C 134.338,19.5019 104.005,19.1685 73.5,19.5C 73.5,48.5 73.5,77.5 73.5,106.5C 73.5,127.833 73.5,149.167 73.5,170.5C 104.005,170.831 134.338,170.498 164.5,169.5C 164.829,154.99 164.496,140.657 163.5,126.5C 163.833,125.833 164.167,125.167 164.5,124.5C 165.662,142.995 165.829,161.662 165,180.5C 154.283,182.094 143.45,182.928 132.5,183C 132.932,186.824 132.432,190.657 131,194.5C 123.654,192.838 116.154,192.005 108.5,192C 106.513,189.53 106.013,186.697 107,183.5C 109.773,182.074 112.607,180.74 115.5,179.5C 116.452,177.955 116.785,176.288 116.5,174.5C 110.709,174.812 105.876,177.145 102,181.5C 101.308,180.975 100.808,180.308 100.5,179.5C 90.8535,178.46 81.1868,177.626 71.5,177C 69.4078,176.047 69.0745,174.714 70.5,173C 68.9805,169.108 67.6471,165.108 66.5,161C 66.2741,145.993 66.6074,131.159 67.5,116.5C 68.086,116.291 68.586,115.957 69,115.5C 69.614,129.887 69.614,144.22 69,158.5C 69.3333,157.833 69.6667,157.167 70,156.5C 70.8244,139.926 70.6577,123.426 69.5,107C 70.8165,99.2337 71.4832,91.2337 71.5,83C 70.2747,64.7685 70.608,46.2685 72.5,27.5C 72.2395,25.8129 71.5728,24.3129 70.5,23C 73.3323,21.0924 72.999,20.259 69.5,20.5C 69.0465,17.3071 67.7132,14.4738 65.5,12C 65.6448,11.228 65.9781,10.5613 66.5,10C 64.5646,10.0579 62.8979,10.8912 61.5,12.5C 63.1024,9.17723 65.769,7.01057 69.5,6C 102.003,5.16925 134.336,5.33592 166.5,6.5 Z"/></g>
<g><path style="opacity:1" fill="#42525a" d="M 164.5,124.5 C 164.5,110.167 164.5,95.8333 164.5,81.5C 165.525,80.6261 166.192,79.4595 166.5,78C 165.532,66.8722 165.199,55.7055 165.5,44.5C 166.5,44.5 167.5,44.5 168.5,44.5C 170.162,39.1777 170.995,33.8444 171,28.5C 171.941,33.7064 173.941,38.373 177,42.5C 177.5,53.8284 177.667,65.1618 177.5,76.5C 175.833,76.5 174.167,76.5 172.5,76.5C 174.564,80.4306 175.898,84.7639 176.5,89.5C 177.667,125.162 177.833,160.829 177,196.5C 175.117,197.653 174.284,199.319 174.5,201.5C 171.651,202.591 168.818,202.591 166,201.5C 164.238,201.944 164.405,202.444 166.5,203C 134.495,203.833 102.495,203.667 70.5,202.5C 67.6754,201.745 65.0087,200.745 62.5,199.5C 62.2914,198.078 61.7914,196.745 61,195.5C 60.3333,161.5 60.3333,127.5 61,93.5C 61.9246,92.9535 62.7579,92.2868 63.5,91.5C 61.8978,88.7631 61.0645,85.7631 61,82.5C 60.8313,67.3277 60.3313,52.3277 59.5,37.5C 59.5,37.1667 59.5,36.8333 59.5,36.5C 60.4731,34.0521 60.8064,31.3854 60.5,28.5C 53.1667,28.5 45.8333,28.5 38.5,28.5C 45.0044,27.5629 51.6711,26.7296 58.5,26C 58.5451,23.3635 58.7118,20.5302 59,17.5C 59.3736,15.5087 60.207,13.842 61.5,12.5C 62.8979,10.8912 64.5646,10.0579 66.5,10C 65.9781,10.5613 65.6448,11.228 65.5,12C 67.7132,14.4738 69.0465,17.3071 69.5,20.5C 72.999,20.259 73.3323,21.0924 70.5,23C 71.5728,24.3129 72.2395,25.8129 72.5,27.5C 70.608,46.2685 70.2747,64.7685 71.5,83C 71.4832,91.2337 70.8165,99.2337 69.5,107C 70.6577,123.426 70.8244,139.926 70,156.5C 69.6667,157.167 69.3333,157.833 69,158.5C 69.614,144.22 69.614,129.887 69,115.5C 68.586,115.957 68.086,116.291 67.5,116.5C 66.6074,131.159 66.2741,145.993 66.5,161C 67.6471,165.108 68.9805,169.108 70.5,173C 69.0745,174.714 69.4078,176.047 71.5,177C 81.1868,177.626 90.8535,178.46 100.5,179.5C 100.808,180.308 101.308,180.975 102,181.5C 105.876,177.145 110.709,174.812 116.5,174.5C 116.785,176.288 116.452,177.955 115.5,179.5C 112.607,180.74 109.773,182.074 107,183.5C 106.013,186.697 106.513,189.53 108.5,192C 116.154,192.005 123.654,192.838 131,194.5C 132.432,190.657 132.932,186.824 132.5,183C 143.45,182.928 154.283,182.094 165,180.5C 165.829,161.662 165.662,142.995 164.5,124.5 Z"/></g>
<g><path style="opacity:1" fill="#fdfdfd" d="M 164.5,20.5 C 164.5,40.8333 164.5,61.1667 164.5,81.5C 164.5,95.8333 164.5,110.167 164.5,124.5C 164.167,125.167 163.833,125.833 163.5,126.5C 158.887,133.168 152.554,135.335 144.5,133C 127.539,124.736 110.539,116.403 93.5,108C 87.678,105.94 81.678,105.107 75.5,105.5C 74.502,77.3382 74.1687,49.0049 74.5,20.5C 104.5,20.5 134.5,20.5 164.5,20.5 Z"/></g>
<g><path style="opacity:0.76" fill="#443d38" d="M 166.5,6.5 C 171.476,6.23837 175.309,8.23837 178,12.5C 179.572,17.4068 180.738,22.4068 181.5,27.5C 190.007,28.0715 198.341,29.0715 206.5,30.5C 197.518,29.7817 188.518,29.4484 179.5,29.5C 179.244,31.7925 179.577,33.9592 180.5,36C 185.833,36.3333 191.167,36.6667 196.5,37C 198.852,37.2401 200.852,38.0735 202.5,39.5C 195.245,38.062 187.912,37.3954 180.5,37.5C 179.768,50.1621 179.602,62.8288 180,75.5C 180.097,78.4823 180.93,81.1489 182.5,83.5C 180.973,83.573 179.973,82.9063 179.5,81.5C 179.561,59.8859 179.061,38.2193 178,16.5C 175.844,11.1813 172.011,7.84793 166.5,6.5 Z"/></g>
<g><path style="opacity:1" fill="#5e1973" d="M 38.5,28.5 C 45.8333,28.5 53.1667,28.5 60.5,28.5C 60.8064,31.3854 60.4731,34.0521 59.5,36.5C 57.1667,36.5 54.8333,36.5 52.5,36.5C 53.9187,35.5489 55.5853,35.2155 57.5,35.5C 57.5,33.5 57.5,31.5 57.5,29.5C 49.0482,29.0984 40.7148,29.765 32.5,31.5C 34.5,30.5 36.5,29.5 38.5,28.5 Z"/></g>
<g><path style="opacity:0.604" fill="#422848" d="M 38.5,28.5 C 36.5,29.5 34.5,30.5 32.5,31.5C 30.8333,31.5 29.1667,31.5 27.5,31.5C 30.8544,29.7424 34.521,28.7424 38.5,28.5 Z"/></g>
<g><path style="opacity:1" fill="#730985" d="M 52.5,36.5 C 46.3541,36.6607 40.3541,37.6607 34.5,39.5C 31.9752,40.64 29.3085,41.3067 26.5,41.5C 26.5674,42.9587 26.2341,44.2921 25.5,45.5C 22.8333,46.1667 21.1667,47.8333 20.5,50.5C 20.5,51.1667 20.1667,51.5 19.5,51.5C 18.0937,51.9731 17.427,52.9731 17.5,54.5C 16.2101,55.0577 15.3768,56.0577 15,57.5C 14.2177,60.3102 13.3844,62.9768 12.5,65.5C 12.8076,63.076 12.4742,60.7427 11.5,58.5C 9.41254,60.7452 8.07921,63.4119 7.5,66.5C 6.13868,64.9716 4.97201,63.3049 4,61.5C 3.50085,66.1548 3.33418,70.8215 3.5,75.5C 3.16667,75.5 2.83333,75.5 2.5,75.5C 1.20992,69.8025 1.20992,64.1358 2.5,58.5C 4.07394,56.8984 4.74061,54.8984 4.5,52.5C 4.5,52.1667 4.5,51.8333 4.5,51.5C 5.90632,51.0269 6.57298,50.0269 6.5,48.5C 6.32842,47.5084 6.66175,46.8417 7.5,46.5C 11.1667,43.5 14.5,40.1667 17.5,36.5C 21.3716,35.8975 24.7049,34.2309 27.5,31.5C 29.1667,31.5 30.8333,31.5 32.5,31.5C 40.7148,29.765 49.0482,29.0984 57.5,29.5C 57.5,31.5 57.5,33.5 57.5,35.5C 55.5853,35.2155 53.9187,35.5489 52.5,36.5 Z"/></g>
<g><path style="opacity:1" fill="#f28934" d="M 206.5,30.5 C 213.82,33.0568 220.82,36.3902 227.5,40.5C 228.757,43.4274 230.757,45.7607 233.5,47.5C 233.971,49.5786 234.637,51.5786 235.5,53.5C 236.138,57.9859 234.804,61.6525 231.5,64.5C 230.059,61.2638 230.392,58.2638 232.5,55.5C 230.438,53.177 228.105,52.5103 225.5,53.5C 224.778,52.4489 223.778,51.7822 222.5,51.5C 221.5,48.5 219.5,46.5 216.5,45.5C 213.184,41.6797 208.85,39.6797 203.5,39.5C 203.167,39.5 202.833,39.5 202.5,39.5C 200.852,38.0735 198.852,37.2401 196.5,37C 191.167,36.6667 185.833,36.3333 180.5,36C 179.577,33.9592 179.244,31.7925 179.5,29.5C 188.518,29.4484 197.518,29.7817 206.5,30.5 Z"/></g>
<g><path style="opacity:0.376" fill="#75543b" d="M 206.5,30.5 C 214.691,31.552 221.691,34.8853 227.5,40.5C 220.82,36.3902 213.82,33.0568 206.5,30.5 Z"/></g>
<g><path style="opacity:0.992" fill="#531e5c" d="M 27.5,31.5 C 24.7049,34.2309 21.3716,35.8975 17.5,36.5C 20.2466,33.7933 23.5799,32.1266 27.5,31.5 Z"/></g>
<g><path style="opacity:0.102" fill="#2f2730" d="M 52.5,36.5 C 54.8333,36.5 57.1667,36.5 59.5,36.5C 59.5,36.8333 59.5,37.1667 59.5,37.5C 59.8294,52.676 59.4961,67.676 58.5,82.5C 58.5,67.5 58.5,52.5 58.5,37.5C 49.6896,37.9966 41.0229,39.3299 32.5,41.5C 33.1667,40.8333 33.8333,40.1667 34.5,39.5C 40.3541,37.6607 46.3541,36.6607 52.5,36.5 Z"/></g>
<g><path style="opacity:1" fill="#4f1f56" d="M 34.5,39.5 C 33.8333,40.1667 33.1667,40.8333 32.5,41.5C 30.3374,43.0828 28.0041,44.4161 25.5,45.5C 26.2341,44.2921 26.5674,42.9587 26.5,41.5C 29.3085,41.3067 31.9752,40.64 34.5,39.5 Z"/></g>
<g><path style="opacity:0.494" fill="#72543b" d="M 203.5,39.5 C 208.85,39.6797 213.184,41.6797 216.5,45.5C 212.124,43.4906 207.79,41.4906 203.5,39.5 Z"/></g>
<g><path style="opacity:0.643" fill="#76553c" d="M 227.5,40.5 C 230.243,42.2393 232.243,44.5726 233.5,47.5C 230.757,45.7607 228.757,43.4274 227.5,40.5 Z"/></g>
<g><path style="opacity:0.643" fill="#47244c" d="M 17.5,36.5 C 14.5,40.1667 11.1667,43.5 7.5,46.5C 9.83333,42.1667 13.1667,38.8333 17.5,36.5 Z"/></g>
<g><path style="opacity:0.694" fill="#71533c" d="M 216.5,45.5 C 219.5,46.5 221.5,48.5 222.5,51.5C 220.167,49.8333 218.167,47.8333 216.5,45.5 Z"/></g>
<g><path style="opacity:0.047" fill="#2b232c" d="M 25.5,45.5 C 24.1667,47.5 22.5,49.1667 20.5,50.5C 21.1667,47.8333 22.8333,46.1667 25.5,45.5 Z"/></g>
<g><path style="opacity:0.208" fill="#3b2b3c" d="M 6.5,48.5 C 6.57298,50.0269 5.90632,51.0269 4.5,51.5C 4.42702,49.9731 5.09368,48.9731 6.5,48.5 Z"/></g>
<g><path style="opacity:0.02" fill="#2c272d" d="M 19.5,51.5 C 19.573,53.0269 18.9063,54.0269 17.5,54.5C 17.427,52.9731 18.0937,51.9731 19.5,51.5 Z"/></g>
<g><path style="opacity:0.475" fill="#73533a" d="M 233.5,47.5 C 235.245,49.0326 236.245,51.0326 236.5,53.5C 236.167,53.5 235.833,53.5 235.5,53.5C 234.637,51.5786 233.971,49.5786 233.5,47.5 Z"/></g>
<g><path style="opacity:0.329" fill="#472f49" d="M 4.5,52.5 C 4.74061,54.8984 4.07394,56.8984 2.5,58.5C 2.25939,56.1016 2.92606,54.1016 4.5,52.5 Z"/></g>
<g><path style="opacity:1" fill="#90999c" d="M 164.5,20.5 C 134.5,20.5 104.5,20.5 74.5,20.5C 74.1687,49.0049 74.502,77.3382 75.5,105.5C 75.5,106.167 75.1667,106.5 74.5,106.5C 74.1667,106.5 73.8333,106.5 73.5,106.5C 73.5,77.5 73.5,48.5 73.5,19.5C 104.005,19.1685 134.338,19.5019 164.5,20.5 Z"/></g>
<g><path style="opacity:0.048" fill="#332a32" d="M 17.5,54.5 C 16.6805,56.8123 15.8471,59.1457 15,61.5C 14.5004,68.1583 14.3337,74.825 14.5,81.5C 12.8224,76.4317 12.1557,71.0984 12.5,65.5C 13.3844,62.9768 14.2177,60.3102 15,57.5C 15.3768,56.0577 16.2101,55.0577 17.5,54.5 Z"/></g>
<g><path style="opacity:0.259" fill="#4f4035" d="M 236.5,53.5 C 237.793,54.842 238.626,56.5087 239,58.5C 239.82,65.0137 239.653,71.3471 238.5,77.5C 238.938,69.3529 238.271,61.3529 236.5,53.5 Z"/></g>
<g><path style="opacity:0.4" fill="#694e38" d="M 222.5,51.5 C 223.778,51.7822 224.778,52.4489 225.5,53.5C 229.37,62.0505 230.536,71.0505 229,80.5C 228.722,81.4158 228.222,82.0825 227.5,82.5C 229.503,71.5085 227.837,61.1752 222.5,51.5 Z"/></g>
<g><path style="opacity:1" fill="#8c0988" d="M 12.5,65.5 C 12.1557,71.0984 12.8224,76.4317 14.5,81.5C 14.5,83.1667 14.5,84.8333 14.5,86.5C 14.7989,88.604 14.4656,90.604 13.5,92.5C 12.5481,90.9547 12.2148,89.288 12.5,87.5C 11.1667,87.5 9.83333,87.5 8.5,87.5C 7.67401,85.7356 6.34068,84.4023 4.5,83.5C 4.72137,80.7212 4.38803,78.0545 3.5,75.5C 3.33418,70.8215 3.50085,66.1548 4,61.5C 4.97201,63.3049 6.13868,64.9716 7.5,66.5C 8.07921,63.4119 9.41254,60.7452 11.5,58.5C 12.4742,60.7427 12.8076,63.076 12.5,65.5 Z"/></g>
<g><path style="opacity:0.565" fill="#4c2749" d="M 2.5,75.5 C 2.83333,75.5 3.16667,75.5 3.5,75.5C 4.38803,78.0545 4.72137,80.7212 4.5,83.5C 3.46899,81.0392 2.80233,78.3725 2.5,75.5 Z"/></g>
<g><path style="opacity:1" fill="#d4732b" d="M 235.5,53.5 C 235.833,53.5 236.167,53.5 236.5,53.5C 238.271,61.3529 238.938,69.3529 238.5,77.5C 238.5,77.8333 238.5,78.1667 238.5,78.5C 236.446,81.0076 235.446,84.0076 235.5,87.5C 232.48,92.8366 229.814,98.5033 227.5,104.5C 226.026,105.436 225.026,106.77 224.5,108.5C 221.916,107.952 220.916,106.285 221.5,103.5C 224.506,97.1473 226.506,90.4806 227.5,83.5C 227.5,83.1667 227.5,82.8333 227.5,82.5C 228.222,82.0825 228.722,81.4158 229,80.5C 230.536,71.0505 229.37,62.0505 225.5,53.5C 228.105,52.5103 230.438,53.177 232.5,55.5C 230.392,58.2638 230.059,61.2638 231.5,64.5C 234.804,61.6525 236.138,57.9859 235.5,53.5 Z"/></g>
<g><path style="opacity:0.569" fill="#664a35" d="M 238.5,78.5 C 238.072,81.7846 237.072,84.7846 235.5,87.5C 235.446,84.0076 236.446,81.0076 238.5,78.5 Z"/></g>
<g><path style="opacity:0.267" fill="#362e36" d="M 14.5,81.5 C 15.6118,83.5994 16.2785,85.9327 16.5,88.5C 15.8333,87.8333 15.1667,87.1667 14.5,86.5C 14.5,84.8333 14.5,83.1667 14.5,81.5 Z"/></g>
<g><path style="opacity:1" fill="#5c2e60" d="M 179.5,81.5 C 179.973,82.9063 180.973,83.573 182.5,83.5C 183.833,84.1667 184.833,85.1667 185.5,86.5C 183.685,85.3702 181.685,84.7036 179.5,84.5C 179.5,86.5 179.5,88.5 179.5,90.5C 178.167,87.5 178.167,84.5 179.5,81.5 Z"/></g>
<g><path style="opacity:1" fill="#6c0c84" d="M 116.5,78.5 C 125.478,77.6459 129.644,81.6459 129,90.5C 126.549,96.0891 122.383,97.9224 116.5,96C 112.079,92.9749 110.579,88.8082 112,83.5C 113.707,81.9625 115.207,80.2959 116.5,78.5 Z"/></g>
<g><path style="opacity:1" fill="#6e2364" d="M 4.5,83.5 C 6.34068,84.4023 7.67401,85.7356 8.5,87.5C 8.70381,90.5176 9.03714,93.5176 9.5,96.5C 7.03635,92.5564 5.36968,88.2231 4.5,83.5 Z"/></g>
<g><path style="opacity:0.82" fill="#4c2a48" d="M 16.5,88.5 C 17.871,90.936 18.871,93.6027 19.5,96.5C 17.0181,94.4973 16.0181,91.8306 16.5,88.5 Z"/></g>
<g><path style="opacity:0.053" fill="#202020" d="M 57.5,93.5 C 57.5,92.8333 57.8333,92.5 58.5,92.5C 58.8333,92.5 59.1667,92.5 59.5,92.5C 59.5,125.167 59.5,157.833 59.5,190.5C 58.8333,158.167 58.1667,125.833 57.5,93.5 Z"/></g>
<g><path style="opacity:0.502" fill="#3f2c3d" d="M 181.5,93.5 C 183.027,93.427 184.027,94.0937 184.5,95.5C 182.973,95.573 181.973,94.9063 181.5,93.5 Z"/></g>
<g><path style="opacity:0.4" fill="#3a2336" d="M 192.5,92.5 C 196.898,95.8947 200.564,99.8947 203.5,104.5C 199.102,101.105 195.436,97.1053 192.5,92.5 Z"/></g>
<g><path style="opacity:0.725" fill="#684934" d="M 59.5,92.5 C 59.1667,92.5 58.8333,92.5 58.5,92.5C 58.8076,90.076 58.4742,87.7427 57.5,85.5C 50.1813,91.1521 43.5147,97.4855 37.5,104.5C 34.4362,107.57 31.1029,110.237 27.5,112.5C 27.5,112.167 27.5,111.833 27.5,111.5C 36.8656,102.133 46.5323,93.1329 56.5,84.5C 57.5832,84.4606 58.5832,84.1272 59.5,83.5C 60.8032,86.6447 60.8032,89.6447 59.5,92.5 Z"/></g>
<g><path style="opacity:1" fill="#fae8fc" d="M 149.5,90.5 C 150.397,89.4019 151.23,89.4019 152,90.5C 153.728,96.6945 151.895,101.195 146.5,104C 144.765,104.651 143.098,104.485 141.5,103.5C 135.668,99.2146 135.334,94.3813 140.5,89C 142,88.8333 143.5,88.6667 145,88.5C 146.986,88.5687 148.486,89.2353 149.5,90.5 Z"/></g>
<g><path style="opacity:1" fill="#67127f" d="M 149.5,90.5 C 153.395,98.1092 151.061,101.609 142.5,101C 138.5,97.3333 138.5,93.6667 142.5,90C 144.885,89.4436 147.218,89.6103 149.5,90.5 Z"/></g>
<g><path style="opacity:0.318" fill="#654834" d="M 235.5,87.5 C 234.152,93.8603 231.485,99.5269 227.5,104.5C 229.814,98.5033 232.48,92.8366 235.5,87.5 Z"/></g>
<g><path style="opacity:0.78" fill="#794f32" d="M 227.5,83.5 C 226.506,90.4806 224.506,97.1473 221.5,103.5C 220.069,104.78 219.402,106.447 219.5,108.5C 218.5,108.5 217.5,108.5 216.5,108.5C 221.013,100.481 224.679,92.1474 227.5,83.5 Z"/></g>
<g><path style="opacity:1" fill="#c56826" d="M 58.5,92.5 C 57.8333,92.5 57.5,92.8333 57.5,93.5C 57.5,94.1667 57.1667,94.5 56.5,94.5C 50.1667,98.8333 44.8333,104.167 40.5,110.5C 40.1667,110.5 39.8333,110.5 39.5,110.5C 37.1789,110.229 35.1789,110.896 33.5,112.5C 33.1667,112.167 32.8333,111.833 32.5,111.5C 34.6049,109.408 36.2716,107.075 37.5,104.5C 43.5147,97.4855 50.1813,91.1521 57.5,85.5C 58.4742,87.7427 58.8076,90.076 58.5,92.5 Z"/></g>
<g><path style="opacity:0.733" fill="#4e2748" d="M 188.5,99.5 C 191.833,100.833 194.167,103.167 195.5,106.5C 192.833,104.5 190.5,102.167 188.5,99.5 Z"/></g>
<g><path style="opacity:1" fill="#991086" d="M 185.5,86.5 C 187.833,88.5 190.167,90.5 192.5,92.5C 195.436,97.1053 199.102,101.105 203.5,104.5C 204.757,107.427 206.757,109.761 209.5,111.5C 210.859,116.305 209.192,117.972 204.5,116.5C 203.5,116.167 202.833,115.5 202.5,114.5C 201.919,110.255 199.586,107.589 195.5,106.5C 194.167,103.167 191.833,100.833 188.5,99.5C 186.833,98.5 185.5,97.1667 184.5,95.5C 184.027,94.0937 183.027,93.427 181.5,93.5C 180.833,92.5 180.167,91.5 179.5,90.5C 179.5,88.5 179.5,86.5 179.5,84.5C 181.685,84.7036 183.685,85.3702 185.5,86.5 Z"/></g>
<g><path style="opacity:0.024" fill="#47372c" d="M 56.5,94.5 C 51.5,100.167 46.1667,105.5 40.5,110.5C 44.8333,104.167 50.1667,98.8333 56.5,94.5 Z"/></g>
<g><path style="opacity:0.988" fill="#632b57" d="M 9.5,96.5 C 10.1499,96.8039 10.8165,97.1373 11.5,97.5C 12.5056,101.102 13.8389,104.435 15.5,107.5C 12.3853,104.532 10.3853,100.866 9.5,96.5 Z"/></g>
<g><path style="opacity:1" fill="#702662" d="M 19.5,96.5 C 21.341,98.8485 22.6743,101.515 23.5,104.5C 22.5,104.5 21.5,104.5 20.5,104.5C 20.1667,101.833 19.8333,99.1667 19.5,96.5 Z"/></g>
<g><path style="opacity:1" fill="#282828" d="M 75.5,105.5 C 81.678,105.107 87.678,105.94 93.5,108C 110.539,116.403 127.539,124.736 144.5,133C 152.554,135.335 158.887,133.168 163.5,126.5C 164.496,140.657 164.829,154.99 164.5,169.5C 134.5,169.5 104.5,169.5 74.5,169.5C 74.5,148.5 74.5,127.5 74.5,106.5C 75.1667,106.5 75.5,106.167 75.5,105.5 Z"/></g>
<g><path style="opacity:0.788" fill="#57284e" d="M 203.5,104.5 C 206.243,106.239 208.243,108.573 209.5,111.5C 206.757,109.761 204.757,107.427 203.5,104.5 Z"/></g>
<g><path style="opacity:0.388" fill="#58402f" d="M 227.5,104.5 C 226.502,108.505 224.502,111.839 221.5,114.5C 221.975,112.216 222.975,110.216 224.5,108.5C 225.026,106.77 226.026,105.436 227.5,104.5 Z"/></g>
<g><path style="opacity:1" fill="#a00c86" d="M 14.5,86.5 C 15.1667,87.1667 15.8333,87.8333 16.5,88.5C 16.0181,91.8306 17.0181,94.4973 19.5,96.5C 19.8333,99.1667 20.1667,101.833 20.5,104.5C 21.5,104.5 22.5,104.5 23.5,104.5C 23.7247,107.546 25.058,109.879 27.5,111.5C 27.5,111.833 27.5,112.167 27.5,112.5C 26.5514,114.777 25.2181,116.777 23.5,118.5C 22.8333,118.167 22.1667,117.833 21.5,117.5C 21.5,117.167 21.5,116.833 21.5,116.5C 21.0865,112.485 19.0865,109.818 15.5,108.5C 15.5,108.167 15.5,107.833 15.5,107.5C 13.8389,104.435 12.5056,101.102 11.5,97.5C 10.8165,97.1373 10.1499,96.8039 9.5,96.5C 9.03714,93.5176 8.70381,90.5176 8.5,87.5C 9.83333,87.5 11.1667,87.5 12.5,87.5C 12.2148,89.288 12.5481,90.9547 13.5,92.5C 14.4656,90.604 14.7989,88.604 14.5,86.5 Z"/></g>
<g><path style="opacity:0.72" fill="#3b4144" d="M 59.5,37.5 C 60.3313,52.3277 60.8313,67.3277 61,82.5C 61.0645,85.7631 61.8978,88.7631 63.5,91.5C 62.7579,92.2868 61.9246,92.9535 61,93.5C 60.3333,127.5 60.3333,161.5 61,195.5C 61.7914,196.745 62.2914,198.078 62.5,199.5C 59.925,197.155 58.925,194.155 59.5,190.5C 59.5,157.833 59.5,125.167 59.5,92.5C 60.8032,89.6447 60.8032,86.6447 59.5,83.5C 58.5832,84.1272 57.5832,84.4606 56.5,84.5C 56.8333,83.5 57.5,82.8333 58.5,82.5C 59.4961,67.676 59.8294,52.676 59.5,37.5 Z"/></g>
<g><path style="opacity:1" fill="#762763" d="M 15.5,108.5 C 19.0865,109.818 21.0865,112.485 21.5,116.5C 19.1468,114.14 17.1468,111.473 15.5,108.5 Z"/></g>
<g><path style="opacity:0.69" fill="#542f4b" d="M 23.5,104.5 C 25.1991,106.566 26.5324,108.9 27.5,111.5C 25.058,109.879 23.7247,107.546 23.5,104.5 Z"/></g>
<g><path style="opacity:1" fill="#6c275b" d="M 195.5,106.5 C 199.586,107.589 201.919,110.255 202.5,114.5C 200.177,111.874 197.843,109.207 195.5,106.5 Z"/></g>
<g><path style="opacity:0.298" fill="#4a3c32" d="M 216.5,108.5 C 216.573,110.027 215.906,111.027 214.5,111.5C 214.427,109.973 215.094,108.973 216.5,108.5 Z"/></g>
<g><path style="opacity:0.039" fill="#42352d" d="M 39.5,110.5 C 39.8333,110.5 40.1667,110.5 40.5,110.5C 39.9202,112.749 38.5869,114.415 36.5,115.5C 37.075,113.589 38.075,111.922 39.5,110.5 Z"/></g>
<g><path style="opacity:0.365" fill="#4b3833" d="M 214.5,111.5 C 214.573,113.027 213.906,114.027 212.5,114.5C 211.833,114.5 211.5,114.167 211.5,113.5C 212.5,112.833 213.5,112.167 214.5,111.5 Z"/></g>
<g><path style="opacity:1" fill="#6c0c85" d="M 139.5,112.5 C 147.696,112.529 150.863,116.529 149,124.5C 146.442,128.212 142.942,129.378 138.5,128C 136.667,127.5 135.5,126.333 135,124.5C 133.309,119.131 134.809,115.131 139.5,112.5 Z"/></g>
<g><path style="opacity:1" fill="#942c5d" d="M 209.5,111.5 C 210.5,111.833 211.167,112.5 211.5,113.5C 211.5,114.167 211.833,114.5 212.5,114.5C 211.567,117.37 209.9,119.704 207.5,121.5C 207.672,120.508 207.338,119.842 206.5,119.5C 205.094,119.027 204.427,118.027 204.5,116.5C 209.192,117.972 210.859,116.305 209.5,111.5 Z"/></g>
<g><path style="opacity:0.208" fill="#423532" d="M 219.5,117.5 C 218.962,119.117 218.629,120.784 218.5,122.5C 217.833,122.5 217.5,122.167 217.5,121.5C 217.5,120.833 217.5,120.167 217.5,119.5C 217.833,118.5 218.5,117.833 219.5,117.5 Z"/></g>
<g><path style="opacity:0.337" fill="#443631" d="M 21.5,117.5 C 22.1667,117.833 22.8333,118.167 23.5,118.5C 22.9898,121.674 21.3231,124.008 18.5,125.5C 20.4279,123.219 21.4279,120.553 21.5,117.5 Z"/></g>
<g><path style="opacity:1" fill="#ac3453" d="M 217.5,119.5 C 217.5,120.167 217.5,120.833 217.5,121.5C 216.563,123.769 215.23,125.769 213.5,127.5C 212.833,127.5 212.167,127.5 211.5,127.5C 213.232,124.562 215.232,121.896 217.5,119.5 Z"/></g>
<g><path style="opacity:1" fill="#9f1d78" d="M 34.5,120.5 C 36.2181,122.223 37.5514,124.223 38.5,126.5C 38.5569,127.609 38.8902,128.609 39.5,129.5C 37.6693,128.948 36.0026,128.948 34.5,129.5C 36.3817,131.93 37.715,134.597 38.5,137.5C 34.7881,134.789 31.7881,131.456 29.5,127.5C 29.5,126.833 29.1667,126.5 28.5,126.5C 28.8333,122.833 30.8333,120.833 34.5,120.5 Z"/></g>
<g><path style="opacity:0.38" fill="#483143" d="M 218.5,122.5 C 219.906,122.973 220.573,123.973 220.5,125.5C 219.094,125.027 218.427,124.027 218.5,122.5 Z"/></g>
<g><path style="opacity:0.145" fill="#483834" d="M 28.5,126.5 C 29.1667,126.5 29.5,126.833 29.5,127.5C 28.391,127.557 27.391,127.89 26.5,128.5C 26.5,127.167 27.1667,126.5 28.5,126.5 Z"/></g>
<g><path style="opacity:0.816" fill="#5c2f4e" d="M 38.5,126.5 C 42.8976,129.895 46.5643,133.895 49.5,138.5C 46.1667,135.5 42.8333,132.5 39.5,129.5C 38.8902,128.609 38.5569,127.609 38.5,126.5 Z"/></g>
<g><path style="opacity:0.424" fill="#51334a" d="M 220.5,125.5 C 221.906,125.973 222.573,126.973 222.5,128.5C 221.094,128.027 220.427,127.027 220.5,125.5 Z"/></g>
<g><path style="opacity:0.071" fill="#40322c" d="M 211.5,127.5 C 212.167,127.5 212.833,127.5 213.5,127.5C 213.5,127.833 213.5,128.167 213.5,128.5C 211.589,129.075 209.922,130.075 208.5,131.5C 208.738,129.596 209.738,128.262 211.5,127.5 Z"/></g>
<g><path style="opacity:1" fill="#b70f87" d="M 39.5,129.5 C 42.8333,132.5 46.1667,135.5 49.5,138.5C 50.7,141.969 50.7,145.302 49.5,148.5C 48.5,146.833 47.1667,145.5 45.5,144.5C 42.8572,142.24 41.6906,139.574 42,136.5C 40.9887,137.337 39.8221,137.67 38.5,137.5C 37.715,134.597 36.3817,131.93 34.5,129.5C 36.0026,128.948 37.6693,128.948 39.5,129.5 Z"/></g>
<g><path style="opacity:0.824" fill="#662c56" d="M 213.5,128.5 C 215.759,129.344 216.759,131.011 216.5,133.5C 215.11,132.101 214.11,130.434 213.5,128.5 Z"/></g>
<g><path style="opacity:0.278" fill="#4d3244" d="M 222.5,128.5 C 223.906,128.973 224.573,129.973 224.5,131.5C 223.094,131.027 222.427,130.027 222.5,128.5 Z"/></g>
<g><path style="opacity:0.353" fill="#4e3d31" d="M 18.5,125.5 C 18.0023,128.326 16.6689,130.66 14.5,132.5C 15.0787,129.669 16.412,127.336 18.5,125.5 Z"/></g>
<g><path style="opacity:1" fill="#a95421" d="M 37.5,104.5 C 36.2716,107.075 34.6049,109.408 32.5,111.5C 32.8333,111.833 33.1667,112.167 33.5,112.5C 35.1789,110.896 37.1789,110.229 39.5,110.5C 38.075,111.922 37.075,113.589 36.5,115.5C 35.5592,117.05 34.8925,118.716 34.5,120.5C 30.8333,120.833 28.8333,122.833 28.5,126.5C 27.1667,126.5 26.5,127.167 26.5,128.5C 23.1423,131.879 20.809,135.879 19.5,140.5C 17.1034,143.309 15.7701,146.642 15.5,150.5C 15.405,152.786 14.7384,154.786 13.5,156.5C 13.1667,156.5 12.8333,156.5 12.5,156.5C 12.5237,151.077 13.1903,145.743 14.5,140.5C 13.5,140.5 12.5,140.5 11.5,140.5C 10.6535,145.888 9.48682,151.221 8,156.5C 7.58605,156.957 7.08605,157.291 6.5,157.5C 5.57131,156.311 5.23798,154.978 5.5,153.5C 7.63459,149.429 8.96793,145.095 9.5,140.5C 11.8218,139.198 13.1551,137.198 13.5,134.5C 13.3284,133.508 13.6618,132.842 14.5,132.5C 16.6689,130.66 18.0023,128.326 18.5,125.5C 21.3231,124.008 22.9898,121.674 23.5,118.5C 25.2181,116.777 26.5514,114.777 27.5,112.5C 31.1029,110.237 34.4362,107.57 37.5,104.5 Z"/></g>
<g><path style="opacity:0.608" fill="#523c2e" d="M 206.5,119.5 C 207.338,119.842 207.672,120.508 207.5,121.5C 201.951,129.556 195.451,136.89 188,143.5C 187.186,145.902 187.353,148.235 188.5,150.5C 189.518,149.807 190.518,149.141 191.5,148.5C 190.644,151.513 188.811,152.18 186,150.5C 186.099,147.888 186.432,145.221 187,142.5C 194.86,135.821 201.36,128.155 206.5,119.5 Z"/></g>
<g><path style="opacity:0.259" fill="#4c3a30" d="M 26.5,128.5 C 24.668,132.836 22.3346,136.836 19.5,140.5C 20.809,135.879 23.1423,131.879 26.5,128.5 Z"/></g>
<g><path style="opacity:0.306" fill="#4d3b30" d="M 13.5,134.5 C 13.1551,137.198 11.8218,139.198 9.5,140.5C 10.3403,138.147 11.6736,136.147 13.5,134.5 Z"/></g>
<g><path style="opacity:1" fill="#7e2565" d="M 45.5,144.5 C 44.7611,144.631 44.0944,144.464 43.5,144C 41.9456,141.713 40.2789,139.546 38.5,137.5C 39.8221,137.67 40.9887,137.337 42,136.5C 41.6906,139.574 42.8572,142.24 45.5,144.5 Z"/></g>
<g><path style="opacity:0.251" fill="#4b3342" d="M 226.5,135.5 C 227.906,135.973 228.573,136.973 228.5,138.5C 227.094,138.027 226.427,137.027 226.5,135.5 Z"/></g>
<g><path style="opacity:1" fill="#ad571e" d="M 221.5,103.5 C 220.916,106.285 221.916,107.952 224.5,108.5C 222.975,110.216 221.975,112.216 221.5,114.5C 221.573,116.027 220.906,117.027 219.5,117.5C 218.5,117.833 217.833,118.5 217.5,119.5C 215.232,121.896 213.232,124.562 211.5,127.5C 209.738,128.262 208.738,129.596 208.5,131.5C 207.833,132.833 206.833,133.833 205.5,134.5C 200.833,138.5 196.5,142.833 192.5,147.5C 192.5,148.167 192.167,148.5 191.5,148.5C 190.518,149.141 189.518,149.807 188.5,150.5C 187.353,148.235 187.186,145.902 188,143.5C 195.451,136.89 201.951,129.556 207.5,121.5C 209.9,119.704 211.567,117.37 212.5,114.5C 213.906,114.027 214.573,113.027 214.5,111.5C 215.906,111.027 216.573,110.027 216.5,108.5C 217.5,108.5 218.5,108.5 219.5,108.5C 219.402,106.447 220.069,104.78 221.5,103.5 Z"/></g>
<g><path style="opacity:0.188" fill="#46313f" d="M 219.5,139.5 C 220.906,139.973 221.573,140.973 221.5,142.5C 220.094,142.027 219.427,141.027 219.5,139.5 Z"/></g>
<g><path style="opacity:0.949" fill="#652e52" d="M 228.5,138.5 C 230.951,141.74 232.618,145.407 233.5,149.5C 230.504,146.503 228.837,142.836 228.5,138.5 Z"/></g>
<g><path style="opacity:0.02" fill="#392e27" d="M 205.5,134.5 C 202.167,139.833 197.833,144.167 192.5,147.5C 196.5,142.833 200.833,138.5 205.5,134.5 Z"/></g>
<g><path style="opacity:0.682" fill="#652854" d="M 49.5,138.5 C 50.1174,138.611 50.6174,138.944 51,139.5C 51.2178,142.426 51.7178,145.26 52.5,148C 51.4971,149.546 50.4971,149.713 49.5,148.5C 50.7,145.302 50.7,141.969 49.5,138.5 Z"/></g>
<g><path style="opacity:0.314" fill="#574031" d="M 19.5,140.5 C 18.6792,144.127 17.3459,147.46 15.5,150.5C 15.7701,146.642 17.1034,143.309 19.5,140.5 Z"/></g>
<g><path style="opacity:0.016" fill="#442d3c" d="M 45.5,144.5 C 47.1667,145.5 48.5,146.833 49.5,148.5C 47.1667,148.167 45.8333,146.833 45.5,144.5 Z"/></g>
<g><path style="opacity:0.216" fill="#402c3a" d="M 221.5,143.5 C 223.104,144.287 223.771,145.62 223.5,147.5C 222.326,146.486 221.66,145.153 221.5,143.5 Z"/></g>
<g><path style="opacity:0.776" fill="#5e4130" d="M 9.5,140.5 C 8.96793,145.095 7.63459,149.429 5.5,153.5C 5.16667,153.5 4.83333,153.5 4.5,153.5C 5.37009,148.776 7.03676,144.443 9.5,140.5 Z"/></g>
<g><path style="opacity:1" fill="#b31880" d="M 217.5,121.5 C 217.5,122.167 217.833,122.5 218.5,122.5C 218.427,124.027 219.094,125.027 220.5,125.5C 220.427,127.027 221.094,128.027 222.5,128.5C 222.427,130.027 223.094,131.027 224.5,131.5C 225.674,132.514 226.34,133.847 226.5,135.5C 226.427,137.027 227.094,138.027 228.5,138.5C 228.837,142.836 230.504,146.503 233.5,149.5C 235.664,155.968 236.997,162.635 237.5,169.5C 234.949,165.075 232.783,160.408 231,155.5C 229.961,161.935 229.127,168.269 228.5,174.5C 228.666,168.824 228.499,163.157 228,157.5C 227.617,156.944 227.117,156.611 226.5,156.5C 225.331,153.659 224.331,150.659 223.5,147.5C 223.771,145.62 223.104,144.287 221.5,143.5C 221.5,143.167 221.5,142.833 221.5,142.5C 221.573,140.973 220.906,139.973 219.5,139.5C 217.992,137.819 216.992,135.819 216.5,133.5C 216.759,131.011 215.759,129.344 213.5,128.5C 213.5,128.167 213.5,127.833 213.5,127.5C 215.23,125.769 216.563,123.769 217.5,121.5 Z"/></g>
<g><path style="opacity:0.021" fill="#3f3028" d="M 12.5,156.5 C 12.8333,156.5 13.1667,156.5 13.5,156.5C 13.0841,165.278 13.7508,173.944 15.5,182.5C 14.8333,181.833 14.1667,181.167 13.5,180.5C 11.3188,172.573 10.9855,164.573 12.5,156.5 Z"/></g>
<g><path style="opacity:0.04" fill="#3c2b35" d="M 226.5,156.5 C 227.117,156.611 227.617,156.944 228,157.5C 228.499,163.157 228.666,168.824 228.5,174.5C 228.672,175.492 228.338,176.158 227.5,176.5C 227.664,169.798 227.331,163.131 226.5,156.5 Z"/></g>
<g><path style="opacity:1" fill="#313b3e" d="M 73.5,106.5 C 73.8333,106.5 74.1667,106.5 74.5,106.5C 74.5,127.5 74.5,148.5 74.5,169.5C 104.5,169.5 134.5,169.5 164.5,169.5C 134.338,170.498 104.005,170.831 73.5,170.5C 73.5,149.167 73.5,127.833 73.5,106.5 Z"/></g>
<g><path style="opacity:0.6" fill="#563727" d="M 4.5,153.5 C 1.69557,165.23 1.86223,176.896 5,188.5C 6.85235,189.695 8.01902,191.362 8.5,193.5C 11.0661,198.419 15.0661,200.752 20.5,200.5C 20.5,201.833 20.5,203.167 20.5,204.5C 22.5273,204.338 24.5273,204.505 26.5,205C 29.5495,207.503 32.8828,209.336 36.5,210.5C 8.89474,204.958 -2.60526,188.292 2,160.5C 2.69761,157.996 3.53094,155.663 4.5,153.5 Z"/></g>
<g><path style="opacity:0.649" fill="#602e4b" d="M 233.5,149.5 C 235.129,151.858 236.295,154.524 237,157.5C 238.093,162.964 238.926,168.464 239.5,174C 239.246,179.244 237.913,184.077 235.5,188.5C 237.006,182.269 237.673,175.936 237.5,169.5C 236.997,162.635 235.664,155.968 233.5,149.5 Z"/></g>
<g><path style="opacity:1" fill="#903f12" d="M 12.5,156.5 C 10.9855,164.573 11.3188,172.573 13.5,180.5C 13.6199,182.734 13.2865,184.901 12.5,187C 13.0223,187.95 13.689,188.784 14.5,189.5C 13.4905,192.337 11.4905,193.67 8.5,193.5C 8.01902,191.362 6.85235,189.695 5,188.5C 1.86223,176.896 1.69557,165.23 4.5,153.5C 4.83333,153.5 5.16667,153.5 5.5,153.5C 5.23798,154.978 5.57131,156.311 6.5,157.5C 7.08605,157.291 7.58605,156.957 8,156.5C 9.48682,151.221 10.6535,145.888 11.5,140.5C 12.5,140.5 13.5,140.5 14.5,140.5C 13.1903,145.743 12.5237,151.077 12.5,156.5 Z"/></g>
<g><path style="opacity:0.675" fill="#5f2b46" d="M 227.5,176.5 C 227.662,178.527 227.495,180.527 227,182.5C 226.764,184.119 225.931,185.119 224.5,185.5C 225.331,182.341 226.331,179.341 227.5,176.5 Z"/></g>
<g><path style="opacity:1" fill="#202020" d="M 108.5,184.5 C 115.841,184.334 123.174,184.5 130.5,185C 131.833,186.667 131.833,188.333 130.5,190C 123.167,190.667 115.833,190.667 108.5,190C 107.248,188.172 107.248,186.339 108.5,184.5 Z"/></g>
<g><path style="opacity:0.192" fill="#423129" d="M 15.5,182.5 C 16.8897,183.899 17.8897,185.566 18.5,187.5C 16.2407,186.656 15.2407,184.989 15.5,182.5 Z"/></g>
<g><path style="opacity:0.514" fill="#6d3153" d="M 235.5,188.5 C 235.771,190.38 235.104,191.713 233.5,192.5C 233.229,190.62 233.896,189.287 235.5,188.5 Z"/></g>
<g><path style="opacity:1" fill="#ce1d82" d="M 237.5,169.5 C 237.673,175.936 237.006,182.269 235.5,188.5C 233.896,189.287 233.229,190.62 233.5,192.5C 233.573,194.027 232.906,195.027 231.5,195.5C 230.094,195.973 229.427,196.973 229.5,198.5C 226.875,201.815 223.542,204.149 219.5,205.5C 218.833,205.5 218.167,205.5 217.5,205.5C 217.821,203.952 218.821,203.285 220.5,203.5C 220.67,202.178 220.337,201.011 219.5,200C 221.384,199.784 223.051,199.117 224.5,198C 220.517,197.996 216.517,198.329 212.5,199C 204.071,203.475 195.071,206.142 185.5,207C 184.259,208.487 184.759,209.32 187,209.5C 192.457,208.935 197.957,208.935 203.5,209.5C 203.167,210.167 202.833,210.833 202.5,211.5C 202.167,211.5 201.833,211.5 201.5,211.5C 193.833,211.5 186.167,211.5 178.5,211.5C 177.833,211.5 177.167,211.5 176.5,211.5C 178.374,209.187 180.374,206.854 182.5,204.5C 189,203.273 195.666,202.273 202.5,201.5C 204.786,201.405 206.786,200.738 208.5,199.5C 209.514,198.326 210.847,197.66 212.5,197.5C 217.012,195.503 220.845,192.503 224,188.5C 224.483,187.552 224.649,186.552 224.5,185.5C 225.931,185.119 226.764,184.119 227,182.5C 227.495,180.527 227.662,178.527 227.5,176.5C 228.338,176.158 228.672,175.492 228.5,174.5C 229.127,168.269 229.961,161.935 231,155.5C 232.783,160.408 234.949,165.075 237.5,169.5 Z"/></g>
<g><path style="opacity:0.369" fill="#503142" d="M 224.5,185.5 C 224.649,186.552 224.483,187.552 224,188.5C 220.845,192.503 217.012,195.503 212.5,197.5C 216.833,193.833 220.833,189.833 224.5,185.5 Z"/></g>
<g><path style="opacity:0.035" fill="#442a38" d="M 231.5,195.5 C 231.573,197.027 230.906,198.027 229.5,198.5C 229.427,196.973 230.094,195.973 231.5,195.5 Z"/></g>
<g><path style="opacity:0.014" fill="#342b31" d="M 208.5,199.5 C 206.786,200.738 204.786,201.405 202.5,201.5C 204.102,199.926 206.102,199.259 208.5,199.5 Z"/></g>
<g><path style="opacity:0.122" fill="#3f312a" d="M 18.5,187.5 C 22.771,191.975 27.771,195.475 33.5,198C 41.018,200.39 48.6847,202.057 56.5,203C 58.3734,205.209 60.54,207.042 63,208.5C 63.5438,210.845 62.5438,212.179 60,212.5C 52.3574,211.88 44.8574,211.213 37.5,210.5C 45.1955,210.831 52.8622,210.497 60.5,209.5C 55.7497,203.271 49.4163,200.771 41.5,202C 34.8034,200.831 28.8034,198.164 23.5,194C 21.2101,192.223 19.5434,190.056 18.5,187.5 Z"/></g>
<g><path style="opacity:1" fill="#7b300e" d="M 13.5,180.5 C 14.1667,181.167 14.8333,181.833 15.5,182.5C 15.2407,184.989 16.2407,186.656 18.5,187.5C 19.5434,190.056 21.2101,192.223 23.5,194C 28.8034,198.164 34.8034,200.831 41.5,202C 49.4163,200.771 55.7497,203.271 60.5,209.5C 52.8622,210.497 45.1955,210.831 37.5,210.5C 37.1667,210.5 36.8333,210.5 36.5,210.5C 32.8828,209.336 29.5495,207.503 26.5,205C 24.5273,204.505 22.5273,204.338 20.5,204.5C 20.5,203.167 20.5,201.833 20.5,200.5C 15.0661,200.752 11.0661,198.419 8.5,193.5C 11.4905,193.67 13.4905,192.337 14.5,189.5C 13.689,188.784 13.0223,187.95 12.5,187C 13.2865,184.901 13.6199,182.734 13.5,180.5 Z"/></g>
<g><path style="opacity:0.755" fill="#313639" d="M 62.5,199.5 C 65.0087,200.745 67.6754,201.745 70.5,202.5C 102.495,203.667 134.495,203.833 166.5,203C 164.405,202.444 164.238,201.944 166,201.5C 168.818,202.591 171.651,202.591 174.5,201.5C 173.4,202.558 172.066,203.392 170.5,204C 138.523,205.589 106.523,205.922 74.5,205C 69.5498,205.022 65.5498,203.189 62.5,199.5 Z"/></g>
<g><path style="opacity:1" fill="#ea128b" d="M 217.5,205.5 C 212.966,207.233 208.3,208.566 203.5,209.5C 197.957,208.935 192.457,208.935 187,209.5C 184.759,209.32 184.259,208.487 185.5,207C 195.071,206.142 204.071,203.475 212.5,199C 216.517,198.329 220.517,197.996 224.5,198C 223.051,199.117 221.384,199.784 219.5,200C 220.337,201.011 220.67,202.178 220.5,203.5C 218.821,203.285 217.821,203.952 217.5,205.5 Z"/></g>
<g><path style="opacity:1" fill="#743051" d="M 217.5,205.5 C 218.167,205.5 218.833,205.5 219.5,205.5C 214.508,209.055 208.841,211.055 202.5,211.5C 202.833,210.833 203.167,210.167 203.5,209.5C 208.3,208.566 212.966,207.233 217.5,205.5 Z"/></g>
<g><path style="opacity:0.502" fill="#583346" d="M 182.5,204.5 C 180.374,206.854 178.374,209.187 176.5,211.5C 174.972,211.483 174.472,210.816 175,209.5C 177.4,207.585 179.9,205.919 182.5,204.5 Z"/></g>
<g><path style="opacity:0.012" fill="#412b37" d="M 178.5,211.5 C 186.167,211.5 193.833,211.5 201.5,211.5C 193.851,213.921 186.184,213.921 178.5,211.5 Z"/></g>
</svg>
